<?xml version="1.0" encoding="utf-8"?>
<!-- Generator: Adobe Illustrator 25.4.1, SVG Export Plug-In . SVG Version: 6.00 Build 0)  -->
<svg version="1.1" id="Layer_1" xmlns="http://www.w3.org/2000/svg" xmlns:xlink="http://www.w3.org/1999/xlink" x="0px" y="0px"
	 viewBox="0 0 1308.6 242" style="enable-background:new 0 0 1308.6 242;" xml:space="preserve">
<style type="text/css">
	.st0{fill:#FC6703;}
</style>
<g>
	<path class="st0" d="M58,242c-4.5-1.6-9.3-1.5-13.9-2.5c-13-2.9-25-7.6-34-18c-9.4-11-11.5-24-9.3-37.9
		c2.2-13.8,8.2-26.2,15.6-37.9c14.9-23.7,32.5-45,53.5-63.5c29.9-26.4,63.9-45.6,101-59.9c22.5-8.6,45.6-15.5,69.4-19.3
		c27.4-4.3,54.6-4.7,81.4,3.6c14.8,4.6,28.1,11.8,35.9,26.1c8.3,15.2,7.6,31,1.2,46.6c-6.4,15.5-16.1,29.1-26.2,42.4
		c-15.4,20.3-32.6,39.1-48,59.4c-3,4-5.8,8.1-7.6,12.8c-2.8,7.1-0.1,11.3,7.6,11.9c8.2,0.6,16.3-0.6,24.4-1.5
		c28.5-3.3,56.4-9.8,83.8-18.3c25.4-7.9,50-17.5,74.6-27.6c3.2-1.3,6.3-3.1,10.7-3.9c-4,3.5-7.8,5.7-11.6,7.8
		c-37.1,20.7-75.4,38.9-115.2,53.7c-20.3,7.6-40.9,14.3-62.3,17.9c-10.8,1.8-21.7,2.8-32.6,0.9c-4-0.7-7.8-2-11.2-4.2
		c-7.6-5-10.9-14-8.9-24.1c2.1-11,8-20.2,14.5-29c10.3-14.1,22.2-26.8,33.6-39.9c14.1-16.3,28.1-32.6,40.3-50.4
		c4.8-7,9.3-14.1,11.7-22.4c2.2-7.8,0.3-14.4-5.2-20.2c-5.8-6.1-13.2-9.5-20.8-12.6c-12-4.9-24.5-8.2-36.9-11.8
		c-1.5-0.4-8.4,2.8-8.9,4c-0.4,1,0.6,1.2,1,1.6c4.3,3.6,8.6,7.2,13.2,11.1c-9.3,1.8-18.2,3.5-27,5.2c-31,6-61.6,14.1-91.7,23.8
		c-12,3.9-23.9,8.1-35.9,12c-2.6,0.8-2.9,1.9-1.9,4.2c1.7,4,3,8.1,4.8,12.1c0.8,1.9,0.4,3-1,4.4c-6.8,6.6-13.4,13.3-20.2,19.9
		c-2,1.9-1.7,2.6,0.9,3.3c32.4,8.2,61.8,2.1,88.5-17.8c2.1-1.5,2.1-2.6,0.4-4.5c-2.3-2.5-5.1-4.4-7.9-6.7
		c11.8,0.8,20.9,10.1,21.4,21.5c0.1,2.3-0.4,3.5-2.9,3.1c-0.9-0.1-1.9-0.1-2.9,0c-1.6,0.1-2-0.6-2-2c0.1-2.1,0.5-5.1-1.1-5.9
		c-1.5-0.8-3.2,1.8-4.8,2.9c-30.6,21.8-63.9,27-99.8,15.8c-0.7-0.2-1.5-0.4-2.1-0.7c-2.1-1-2.7-0.4-2.7,1.8c0.1,8.4,0,16.8,0.1,25.1
		c0,2.1-0.6,3.1-2.6,3.9c-13.6,5.8-26.1,13.3-36,24.5c-3,3.4-5.4,7.1-6.7,11.4c-2,7,0.4,13.8,6.5,17.7c8.5,5.5,18.2,7.5,28.1,8.4
		c23.4,2.3,46.4-0.8,69.4-4.8c13.6-2.3,27-5.4,40.4-8.9c1.1-0.3,2.1-0.3,3.1-0.3l-0.1-0.1c-24,12.3-48.6,22.9-75,28.9
		c-13.2,3-26.6,5-40.2,6c-1,0.1-2.1-0.4-2.9,0.7C69.4,242,63.7,242,58,242z"/>
	<path class="st0" d="M422.2,242c-2.3-1.5-5-2.1-7.1-3.9c-5.5-4.7-7.4-13-4.4-19.6c3.2-7.1,10.5-10.8,18.3-9.5
		c7,1.2,12.5,7.5,13.2,15.1c0.7,7.3-3.7,14.2-10.5,16.8c-0.8,0.3-1.9,0.1-2.4,1.2C426.9,242,424.6,242,422.2,242z M412,225.1
		c-0.1,7.8,6.1,14.1,13.7,14.1c7.4,0,13.8-6.4,13.9-13.8c0-7.6-6.1-14-13.5-14C418.3,211.3,412,217.3,412,225.1z"/>
	<path class="st0" d="M652.5,202.6c-13,0-25.6,0-38.2,0c-1.7,0-1.7-1.1-2.1-2.2c-3.3-10.7-6.7-21.4-9.9-32.1
		c-0.7-2.3-1.7-3.1-4.2-3.1c-17.3,0.1-34.7,0.1-52,0c-2.5,0-3.4,0.9-4.1,3.2c-3.2,10.6-6.7,21.2-9.9,31.8c-0.6,2.1-1.6,2.5-3.5,2.5
		c-11.2-0.1-22.3-0.1-33.5,0c-2,0-2.8-0.2-2-2.6c8-23.1,15.8-46.2,23.6-69.4c10-29.2,19.9-58.4,29.8-87.7c0.6-1.9,1.5-2.4,3.4-2.4
		c15.1,0.1,30.2,0.1,45.3,0c2.3,0,3.1,0.9,3.7,2.8c8.1,24.3,16.3,48.5,24.5,72.8c9.4,27.8,18.9,55.7,28.3,83.5
		C651.9,200.5,652.1,201.3,652.5,202.6z M572.1,132c5.5,0,11,0,16.6,0c1.7,0,2.2-0.4,1.6-2.2c-5.4-17.3-10.8-34.7-16.2-52.1
		c-0.3-1.1-0.5-2-2-2c-1.4,0.1-1.4,1.1-1.7,2c-5.5,17.3-10.9,34.7-16.4,52c-0.7,2.1,0,2.3,1.8,2.3C561.2,132,566.7,132,572.1,132z"
		/>
	<path class="st0" d="M1102.1,189.7c-0.6,3.7-1.2,7.3-1.6,11c-0.2,1.6-0.6,2.4-2.5,2.4c-9.5-0.1-18.9-0.1-28.4,0
		c-1.6,0-2.4-0.4-2.2-2.1c0.1-0.7,0-1.5,0-2.2c0-51.6,0-103.1-0.1-154.7c0-3.1,0.8-3.9,3.8-3.8c9.8,0.2,19.6,0.1,29.3,0
		c2.3,0,2.8,0.7,2.8,2.9c-0.1,16.9-0.1,33.7-0.1,50.6c0,1.2-0.3,2.5,0.4,3.6c15.4-14.4,33.6-14.2,52.2-9.3
		c13.3,3.5,20.3,13.6,23.6,26.4c4.1,15.7,3.9,31.7,2.4,47.7c-0.7,6.8-2.2,13.4-4.9,19.6c-4.9,11.4-13.2,18.8-25.3,21.7
		c-10.6,2.6-21.3,2.3-31.9-0.3C1112,201.2,1106.2,196.8,1102.1,189.7z M1146.5,145.4c-0.2-3.6-0.4-7.2-0.6-10.8
		c-0.2-3.7-0.9-7.3-2.1-10.9c-2.3-6.7-6.7-11.1-13.8-12.1c-15.4-2.3-25.6,3.2-27.9,19.4c-1.3,9.2-1.4,18.3,0,27.5
		c2,13.3,8.2,19.3,21.5,20c9.5,0.5,17.6-2.6,20.8-14.6C1146.2,157.9,1146.3,151.7,1146.5,145.4z"/>
	<path class="st0" d="M831.1,189c-0.6,4.1-1.4,7.7-1.6,11.2c-0.2,2.5-1.2,2.9-3.4,2.8c-8.6-0.1-17.2-0.2-25.8,0
		c-3.1,0.1-4.1-0.6-4.1-3.9c0.1-48.3,0.1-96.5,0.1-144.8c0-3.8,0.1-7.6,0-11.5c-0.1-2,0.4-2.7,2.6-2.7c10.1,0.1,20.2,0.1,30.3,0
		c2.3,0,2.8,0.6,2.8,2.8c-0.1,17.1,0,34.1,0,51.2c0,1.1,0,2.2,0,3.6c0.6-0.3,0.9-0.4,1.1-0.6c6.1-7.3,14.3-10.4,23.4-11.5
		c9.2-1.1,18.5-1,27.5,1.7c12.7,3.8,20.6,12.6,23.8,25.1c5.5,21.5,5.9,43.3-0.4,64.7c-5.1,17.3-17.4,26.2-36,27.5
		c-7.4,0.5-14.9,0.2-22.2-1.6c-7.2-1.8-13-5.5-16.6-12.2C832.1,190.5,831.8,190,831.1,189z M875.2,145.2c0-4.5-0.1-8.9-0.7-13.3
		c-0.8-5.4-1.9-10.7-5.7-14.9c-6.2-6.6-14.1-6.6-22.2-5.1c-8.2,1.5-12.7,6.9-14.6,14.6c-2.8,11.5-2.9,23.2-0.5,34.7
		c2.5,11.9,8.8,16.9,20.8,17.5c11.5,0.6,19.2-5.2,21.5-16.4C875,156.7,875.3,151,875.2,145.2z"/>
	<path class="st0" d="M1002.9,191.4c-11.7,13-26.6,14.4-42.1,13.3c-8.3-0.5-16.2-2.7-22.6-8.3c-8.7-7.6-10.6-17.8-10.4-28.6
		c0.2-7.5,1.5-14.8,6.2-21c6.1-8,14.8-11,24.2-12.5c13.4-2.2,26.9-1.1,40.4-1.3c3.9-0.1,3.9,0,3.7-4.1c-0.6-8.3-4-12.1-12.3-13.1
		c-12.5-1.5-25-0.4-37.5,0.9c-2.1,0.2-2.5-0.3-2.5-2.2c0.1-8.3,0.1-16.5,0-24.8c0-1.5,0.1-2.6,2-2.8c19.3-1.6,38.5-3.2,57.7,1
		c4.7,1,9.2,2.7,13.3,5.2c10.1,6,14.1,15.5,14.6,26.6c0.3,5.9,0.1,11.9,0.1,17.8c0,20.8,0,41.6,0,62.3c0,1.5,0.5,3.1-2.2,3.1
		c-9.2-0.2-18.5-0.1-27.7,0c-1.6,0-2.3-0.5-2.6-2C1004.6,197.9,1003.7,194.8,1002.9,191.4z M1002.3,163.2c0-1.4-0.1-2.2,0-2.9
		c0.6-3.2-0.7-4.2-4-4c-6.1,0.3-12.3,0.1-18.5,0.1c-3.4,0-6.8,0.2-10.1,1.1c-5.1,1.5-7.5,5.1-7.3,10.9c0.2,5.1,2.8,8.2,8,9.2
		c7.9,1.6,15.7,0.8,23-2.5C998.7,172.7,1003.8,169.7,1002.3,163.2z"/>
	<path class="st0" d="M1273.8,191.5c-13.5,14.1-30.1,15-47.4,12.5c-11.1-1.6-20.4-6.7-24.6-17.7c-5.1-13.3-5.2-26.7,2.8-39
		c5.5-8.6,14.8-11.3,24.3-12.9c12.9-2.2,25.9-1.2,38.8-1.4c6.1-0.1,6.1,0,5.2-6c-1.1-6.9-4.3-10-11.5-11.1
		c-7.8-1.2-15.7-0.8-23.5-0.4c-5,0.3-10,0.7-14.9,1.3c-1.7,0.2-2-0.2-2-1.7c0-8.6,0.1-17.2,0-25.8c0-2,1-2.3,2.4-2.4
		c7.7-0.5,15.5-1.3,23.2-1.5c12.7-0.3,25.5-0.2,37.9,3.5c15.1,4.5,23.6,14.8,24,30.6c0.4,17.6,0.2,35.2,0.2,52.8
		c0,9.1-0.1,18.2,0,27.4c0,2.3-0.4,3.4-3.1,3.3c-8.8-0.2-17.6-0.2-26.5,0c-2,0-2.8-0.6-3.2-2.5
		C1275.3,197.6,1274.5,194.6,1273.8,191.5z M1258.4,156.3c-5.3,0.2-12-0.7-18.4,1.4c-4.7,1.6-6.8,4.9-6.7,10.3
		c0.1,5.1,2.4,8.3,7.3,9.4c9.1,1.9,17.9,1,26.1-3.6c4.3-2.4,7.3-5.7,6.4-11.2c-0.2-1.3-0.1-2.8,0-4.1c0.1-1.7-0.6-2.2-2.2-2.2
		C1267.2,156.4,1263.4,156.3,1258.4,156.3z"/>
	<path class="st0" d="M705.2,121.7c0,26,0,52,0.1,77.9c0,2.8-0.8,3.5-3.6,3.5c-9.8-0.2-19.6-0.1-29.3,0c-2.3,0-3.1-0.4-3.1-2.9
		c0.1-52.4,0.1-104.8,0-157.1c0-2.3,0.7-2.8,2.9-2.8c10,0.1,20,0.1,30,0c2.6,0,3.1,0.8,3.1,3.2C705.1,69.5,705.2,95.6,705.2,121.7z"
		/>
	<path class="st0" d="M768.5,145.3c0,17.9,0,35.8,0,53.7c0,5,0.1,4-4.2,4c-9.6,0-19.1-0.1-28.7,0.1c-2.3,0-3.1-0.5-3.1-2.9
		c0.1-36.6,0.1-73.1,0-109.7c0-2.6,0.9-3.1,3.3-3.1c9.7,0.1,19.3,0.2,29,0c3.3-0.1,3.8,1,3.7,3.9
		C768.4,109.2,768.5,127.3,768.5,145.3C768.5,145.3,768.5,145.3,768.5,145.3z"/>
	<path class="st0" d="M750.5,36.9c3.8,0.1,7.6-0.1,11.4,0.7c4.4,1,6.6,3.1,7.4,7.6c1.1,6.5,1.1,13.1,0,19.6c-0.7,4.4-3.4,7-7.7,7.8
		c-7.4,1.2-14.8,1.2-22.2,0c-4.4-0.7-6.9-3.6-7.7-7.9c-1.1-6.4-1.2-12.9,0-19.3c0.8-4.5,3.4-7.1,8-7.9
		C743.3,36.9,746.9,37,750.5,36.9z"/>
	<path class="st0" d="M193.3,206.4c0.1-0.1,0.2-0.4,0.3-0.4c0.3,0.1,0.2,0.2-0.1,0.2C193.4,206.2,193.3,206.3,193.3,206.4
		C193.2,206.4,193.3,206.4,193.3,206.4z"/>
	<path class="st0" d="M428.9,225.8c2.4,2.5,3.9,4.9,5.3,7.6c-1.8,0.7-2.9,0.1-3.8-1.4c-1-1.6-2-3.2-3.2-4.7c-1.3-1.7-3.3-1.6-5-1.1
		c-1.4,0.4-0.4,2-0.7,3.1c-0.4,1.4,1.2,4.1-1.1,4.2c-2.5,0-1.1-2.7-1.1-4.1c-0.2-3.6,0-7.2-0.1-10.8c-0.1-1.8,0.6-2.5,2.4-2.4
		c1.9,0.1,3.8,0,5.7,0c2.8,0,5.2,0.6,5.7,3.8C433.5,223,432.1,224.9,428.9,225.8z M425.4,218.3c-1.3,0.5-3.7-1.3-3.9,2.2
		c-0.2,3.3,1.3,3.7,3.8,3.5c2.3-0.2,5.2,0.1,5.1-3.2C430.3,217.8,427.5,218.4,425.4,218.3z"/>
</g>
</svg>
